<?xml version="1.0" standalone="no"?><!DOCTYPE svg PUBLIC "-//W3C//DTD SVG 1.1//EN" "http://www.w3.org/Graphics/SVG/1.1/DTD/svg11.dtd"><svg t="1534599150402" class="icon" style="" viewBox="0 0 1024 1024" version="1.1" xmlns="http://www.w3.org/2000/svg" p-id="2319" xmlns:xlink="http://www.w3.org/1999/xlink" width="200" height="200"><defs><style type="text/css"></style></defs><path d="M376.415 318.174c0-4.193 1.864-7.921 4.659-10.716l23.297-23.296c2.795-2.795 6.988-4.659 10.716-4.659s7.921 1.864 10.717 4.659l217.122 217.122c2.795 2.795 4.659 6.988 4.659 10.716 0 3.727-1.864 7.92-4.659 10.715L425.804 739.838c-2.796 2.795-6.989 4.66-10.717 4.66s-7.921-1.865-10.716-4.66l-23.297-23.297c-2.795-2.795-4.659-6.988-4.659-10.717 0-3.727 1.864-7.92 4.659-10.715L564.184 512 381.074 328.891C378.279 326.095 376.415 321.902 376.415 318.174z" p-id="2320" fill="#96969b"></path></svg>