<?xml version="1.0" standalone="no"?><!DOCTYPE svg PUBLIC "-//W3C//DTD SVG 1.1//EN" "http://www.w3.org/Graphics/SVG/1.1/DTD/svg11.dtd"><svg t="1534652479771" class="icon" style="" viewBox="0 0 1024 1024" version="1.1" xmlns="http://www.w3.org/2000/svg" p-id="7350" xmlns:xlink="http://www.w3.org/1999/xlink" width="200" height="200"><defs><style type="text/css"></style></defs><path d="M800 96 224 96C171.072 96 128 139.072 128 192l0 640c0 52.928 43.072 96 96 96l576 0c52.928 0 96-43.072 96-96L896 192C896 139.072 852.928 96 800 96zM672.992 512.864c0 17.664-14.304 32-32 32L287.776 544.864c-17.664 0-32-14.336-32-32s14.336-32 32-32l353.216 0C658.688 480.864 672.992 495.2 672.992 512.864zM511.104 256c26.528 0 48 21.504 48 48 0 26.528-21.472 48.032-48 48.032s-48-21.504-48-48.032C463.104 277.504 484.576 256 511.104 256zM303.712 256c26.528 0 48 21.504 48 48 0 26.528-21.472 48.032-48 48.032s-48-21.504-48-48.032C255.712 277.504 277.184 256 303.712 256zM734.88 735.52 287.648 735.52c-17.664 0-32-14.304-32-32s14.336-32 32-32l447.232 0c17.696 0 32 14.304 32 32S752.576 735.52 734.88 735.52zM719.232 352.032c-26.528 0-48-21.504-48-48.032 0-26.496 21.472-48 48-48s48 21.504 48 48C767.232 330.528 745.76 352.032 719.232 352.032z" p-id="7351" fill="#3478f6"></path></svg>