<?xml version="1.0" standalone="no"?><!DOCTYPE svg PUBLIC "-//W3C//DTD SVG 1.1//EN" "http://www.w3.org/Graphics/SVG/1.1/DTD/svg11.dtd"><svg t="1534605635602" class="icon" style="" viewBox="0 0 1024 1024" version="1.1" xmlns="http://www.w3.org/2000/svg" p-id="4443" xmlns:xlink="http://www.w3.org/1999/xlink" width="200" height="200"><defs><style type="text/css"></style></defs><path d="M554.318 523.912c-22.604 0-40.401 8.389-53.394 25.167-12.993 16.777-19.484 38.509-19.484 65.188 0 26.333 6.349 47.859 19.05 64.577 12.697 16.723 30.117 25.079 52.256 25.079 22.603 0 40.196-8.009 52.78-24.03 12.583-16.019 18.875-37.545 18.875-64.577 0-28.193-6.117-50.479-18.353-66.849C593.816 532.1 576.572 523.912 554.318 523.912z" p-id="4444" fill="#a1a1a1"></path><path d="M917.39 384.905c47.787-52.161 16.062-204.917 8.11-184.045-8 21-41 24-41 24s14-11 5-92-38-114-38-114-20 31-61 71-108 44-108 44 3-11 6-29.5-4-39.5-4-39.5-9 13-57 44c-25.084 16.2-38.421 21.474-45.442 22.819-23.303-3.732-47.202-5.68-71.558-5.68-247.976 0-449 201.024-449 449 0 247.977 201.024 449 449 449 247.977 0 449-201.023 449-449C959.5 507.053 944.405 442.632 917.39 384.905zM374.48 749.189l-57.675 0L316.805 637.512 201.46 637.512 201.46 749.19l-57.674 0L143.786 478.473l57.674 0 0 109.23 115.347 0 0-109.23 57.676 0L374.48 749.189zM648.082 714.498c-24.527 26.275-56.655 39.41-96.385 39.41-38.799 0-70.317-12.729-94.551-38.188-24.235-25.457-36.353-58.226-36.353-98.308 0-42.409 12.378-76.926 37.138-103.551 24.758-26.623 57.471-39.937 98.135-39.937 38.682 0 69.818 12.875 93.414 38.624 23.594 25.751 35.391 58.84 35.391 99.271C684.871 654 672.607 688.226 648.082 714.498zM901.934 525.66l-77.248 0 0 223.528-57.848 0L766.838 525.66l-77.073 0 0-47.188 212.169 0L901.934 525.66z" p-id="4445" fill="#a1a1a1"></path></svg>