<?xml version="1.0" standalone="no"?><!DOCTYPE svg PUBLIC "-//W3C//DTD SVG 1.1//EN" "http://www.w3.org/Graphics/SVG/1.1/DTD/svg11.dtd"><svg t="1534652595902" class="icon" style="" viewBox="0 0 1024 1024" version="1.1" xmlns="http://www.w3.org/2000/svg" p-id="11469" xmlns:xlink="http://www.w3.org/1999/xlink" width="200" height="200"><defs><style type="text/css"></style></defs><path d="M809.129746 64.815191 212.201471 64.815191c-46.925752 0-85.275175 38.347376-85.275175 85.177961l0 596.246753c0 46.831608 38.349423 85.176938 85.275175 85.176938l170.551374 0 127.913275 127.766942 127.913275-127.766942 170.551374 0c46.925752 0 85.275175-38.346353 85.275175-85.176938L894.405945 149.993153C894.404921 103.162568 856.056522 64.815191 809.129746 64.815191zM510.665097 205.350948c63.956637 0 115.131157 51.115168 115.131157 114.998127S574.621734 435.348226 510.665097 435.348226 395.534963 384.233058 395.534963 320.349075 446.70846 205.350948 510.665097 205.350948zM766.49267 661.061944l-511.653099 0 0-38.347376c0-85.177961 170.550351-132.00957 255.82655-132.00957s255.827573 46.831608 255.827573 132.00957L766.493693 661.061944z" p-id="11470" fill="#3478f6"></path></svg>