<?xml version="1.0" standalone="no"?><!DOCTYPE svg PUBLIC "-//W3C//DTD SVG 1.1//EN" "http://www.w3.org/Graphics/SVG/1.1/DTD/svg11.dtd"><svg t="1534652446253" class="icon" style="" viewBox="0 0 1024 1024" version="1.1" xmlns="http://www.w3.org/2000/svg" p-id="6534" xmlns:xlink="http://www.w3.org/1999/xlink" width="200" height="200"><defs><style type="text/css"></style></defs><path d="M979.056392 403.793556c-4.146437-12.753465-15.173584-22.048155-28.446889-23.977088l-281.238312-40.859593L543.598672 84.157725c-5.936199-12.022825-18.186198-19.634176-31.596625-19.634176s-25.660426 7.612375-31.598672 19.634176L354.627786 338.956875 73.389474 379.816468c-13.274328 1.928932-24.297382 11.222599-28.445866 23.977088-4.14439 12.757558-0.688685 26.754341 8.91709 36.117592l203.505927 198.330044-48.042179 280.050254c-2.266623 13.218046 3.166109 26.575262 14.015202 34.45472 10.853186 7.881504 25.237801 8.922207 37.109176 2.683109l251.5522-132.222417 251.547083 132.222417c5.155417 2.711761 10.785647 4.046153 16.393365 4.046153 7.306406 0 14.576997-2.266623 20.716834-6.729262 10.849092-7.879458 16.283872-21.236674 14.015202-34.45472l-48.038086-280.050254 203.505927-198.330044C979.747123 430.550966 983.198735 416.551114 979.056392 403.793556z" p-id="6535" fill="#3478f6"></path></svg>